<svg width="56" height="44" viewBox="0 0 56 44" fill="none" xmlns="http://www.w3.org/2000/svg">
<path d="M14.5858 24.8542L12.5917 23.3465L14.5858 24.8542ZM21.4516 23.7807L22.8903 21.7362L21.4516 23.7807ZM26.5421 27.363L25.1034 29.4075H25.1034L26.5421 27.363ZM33.7413 25.7884L35.9022 27.0456L33.7413 25.7884ZM49.417 2.36103C49.0641 1.02618 47.6959 0.230143 46.361 0.583035L24.6083 6.33374C23.2735 6.68664 22.4775 8.05482 22.8303 9.38968C23.1832 10.7245 24.5514 11.5206 25.8863 11.1677L45.222 6.05593L50.3337 25.3917C50.6866 26.7265 52.0548 27.5225 53.3897 27.1697C54.7245 26.8168 55.5206 25.4486 55.1677 24.1137L49.417 2.36103ZM3.99415 43.0078L16.58 26.362L12.5917 23.3465L0.00585163 39.9922L3.99415 43.0078ZM20.0129 25.8253L25.1034 29.4075L27.9808 25.3184L22.8903 21.7362L20.0129 25.8253ZM35.9022 27.0456L49.1609 4.25723L44.8391 1.74277L31.5804 24.5312L35.9022 27.0456ZM25.1034 29.4075C28.6993 31.938 33.6909 30.8463 35.9022 27.0456L31.5804 24.5312C30.8433 25.798 29.1795 26.1619 27.9808 25.3184L25.1034 29.4075ZM16.58 26.362C17.3926 25.2872 18.9109 25.0498 20.0129 25.8253L22.8903 21.7362C19.5844 19.4099 15.0297 20.122 12.5917 23.3465L16.58 26.362Z" fill="white"/>
</svg>
