<svg width="35" height="36" viewBox="0 0 35 36" fill="none" xmlns="http://www.w3.org/2000/svg">
<path d="M9.02593 2.98219C6.38114 4.52579 4.28726 6.6196 2.74381 9.26415C1.20028 11.9091 0.428711 14.7966 0.428711 17.9287C0.428711 21.0604 1.20051 23.9488 2.74381 26.5932C4.28718 29.238 6.38114 31.3317 9.02593 32.8753C11.6706 34.4187 14.5587 35.1904 17.69 35.1904C21.4514 35.1904 24.8337 34.093 27.8379 31.8977C30.8423 29.7025 32.9212 26.8668 34.0749 23.3906C34.15 22.9859 34.0972 22.6864 33.9178 22.4916C33.7381 22.2968 33.5131 22.1995 33.2438 22.1995C33.1988 22.1995 32.7944 22.2034 32.0301 22.2108C31.2658 22.2186 30.599 22.2222 30.03 22.2222L30.1195 22.7392C30.1798 23.0688 30.2054 23.4846 30.1982 23.9866C30.1912 24.4884 30.1386 25.0093 30.0408 25.5486C29.9439 26.0882 29.7192 26.5901 29.367 27.0546C29.0149 27.5189 28.554 27.8485 27.985 28.0434L27.4677 28.2681C27.1234 28.4179 26.7409 28.6538 26.3216 28.976C25.9019 29.2982 25.6174 29.6241 25.4676 29.9537L25.355 30.111C25.2801 30.2159 25.1898 30.3132 25.085 30.4032C24.9802 30.4931 24.8754 30.5604 24.7704 30.6053C24.6653 30.6504 24.5791 30.6131 24.5114 30.493C24.4438 30.373 24.411 30.156 24.411 29.8412L24.4781 29.3918C24.5382 29.0921 24.7176 28.7214 25.0175 28.2792C25.3171 27.8373 25.7066 27.474 26.1859 27.1892C26.8004 26.8444 27.2687 26.429 27.5909 25.9418C27.9131 25.4549 28.0739 24.9641 28.0739 24.4697C28.0739 23.9753 28.0364 23.5483 27.9619 23.1886C27.8869 22.8292 27.7743 22.492 27.6246 22.1772C26.6202 22.0424 25.8486 21.6752 25.3093 21.076C25.2196 21.93 25.0844 22.6978 24.9047 23.3798C24.7247 24.0614 24.4326 24.7657 24.0277 25.4923C23.6233 26.2194 23.1211 26.8225 22.522 27.3018C21.9226 27.7812 21.1357 28.1747 20.162 28.4816C19.1879 28.7887 18.0642 28.9423 16.7906 28.9423C14.9772 28.9423 13.434 28.3503 12.1603 27.1666C10.797 27.7211 9.26864 27.6687 7.57545 27.0093C7.44044 26.5748 7.54176 25.9304 7.87877 25.0764C8.21595 24.2222 8.50478 23.5968 8.74426 23.1996C8.98366 22.8024 9.18653 22.4841 9.35106 22.2443C8.96161 20.8505 8.76685 19.4121 8.76685 17.9288C8.76685 16.4455 8.96161 15.0069 9.35106 13.613L8.81188 12.7589C8.45212 12.1749 8.12242 11.4852 7.82272 10.6915C7.52318 9.89732 7.44068 9.29005 7.57569 8.8703C9.26895 8.19627 10.7972 8.1362 12.1605 8.69089C13.4343 7.5072 14.9778 6.91497 16.7908 6.91497C18.0644 6.91497 19.1916 7.06911 20.1732 7.37574C21.155 7.68276 21.9411 8.0796 22.5333 8.56643C23.1254 9.0538 23.6236 9.66076 24.0279 10.3874C24.4326 11.1142 24.7246 11.8187 24.9046 12.5003C25.0846 13.1822 25.2198 13.95 25.3097 14.804C25.9837 14.0251 27.0477 13.6356 28.5011 13.6356L33.2431 13.6356C33.5125 13.6356 33.7374 13.5419 33.9172 13.3544C34.0966 13.1671 34.1494 12.8713 34.0742 12.4667C32.9207 8.99004 30.8417 6.15426 27.8373 3.95922C24.8331 1.76441 21.4508 0.666618 17.6894 0.666618C14.5585 0.667405 11.6706 1.43952 9.02593 2.98219Z" fill="white"/>
</svg>
