<svg width="36" height="34" viewBox="0 0 36 34" fill="none" xmlns="http://www.w3.org/2000/svg">
<path d="M33.1669 8.62237C31.6233 5.97758 29.5295 3.88369 26.8849 2.34024C24.2399 0.796714 21.3525 0.0251465 18.2204 0.0251465C15.0887 0.0251465 12.2002 0.79695 9.55584 2.34024C6.91105 3.88361 4.81732 5.97758 3.27371 8.62237C1.73034 11.2671 0.958618 14.1551 0.958618 17.2864C0.958618 21.0478 2.05602 24.4302 4.25138 27.4343C6.4465 30.4387 9.28227 32.5177 12.7585 33.6714C13.1631 33.7465 13.4626 33.6936 13.6574 33.5142C13.8522 33.3346 13.9495 33.1096 13.9495 32.8402C13.9495 32.7952 13.9457 32.3908 13.9382 31.6265C13.9305 30.8622 13.9269 30.1954 13.9269 29.6265L13.4099 29.7159C13.0803 29.7763 12.6645 29.8019 12.1624 29.7946C11.6607 29.7876 11.1398 29.735 10.6004 29.6373C10.0608 29.5403 9.55899 29.3156 9.09444 28.9635C8.63013 28.6113 8.30052 28.1504 8.10568 27.5814L7.88092 27.0642C7.73111 26.7198 7.49525 26.3373 7.17304 25.918C6.85083 25.4984 6.52499 25.2139 6.19537 25.0641L6.03801 24.9514C5.93315 24.8765 5.83585 24.7862 5.74586 24.6815C5.65596 24.5767 5.58865 24.4718 5.5437 24.3668C5.49867 24.2617 5.53599 24.1755 5.65604 24.1079C5.77609 24.0403 5.99306 24.0074 6.30787 24.0074L6.75722 24.0746C7.05692 24.1346 7.42763 24.3141 7.86982 24.6139C8.31177 24.9135 8.67508 25.3031 8.95982 25.7823C9.30463 26.3968 9.72006 26.8651 10.2073 27.1873C10.6941 27.5095 11.1849 27.6703 11.6793 27.6703C12.1737 27.6703 12.6007 27.6329 12.9605 27.5583C13.3198 27.4834 13.657 27.3707 13.9718 27.221C14.1067 26.2166 14.4738 25.4451 15.073 24.9057C14.219 24.816 13.4512 24.6808 12.7692 24.5011C12.0877 24.3211 11.3833 24.0291 10.6567 23.6241C9.9297 23.2197 9.3266 22.7175 8.84725 22.1185C8.36782 21.5191 7.97437 20.7321 7.66742 19.7584C7.36032 18.7843 7.20673 17.6606 7.20673 16.387C7.20673 14.5736 7.79873 13.0305 8.9825 11.7567C8.42797 10.3934 8.48032 8.86507 9.13971 7.17189C9.57426 7.03688 10.2187 7.1382 11.0727 7.47521C11.9268 7.81238 12.5522 8.10122 12.9494 8.34069C13.3467 8.58009 13.665 8.78296 13.9048 8.94749C15.2986 8.55805 16.7369 8.36329 18.2202 8.36329C19.7035 8.36329 21.1422 8.55805 22.5361 8.94749L23.3901 8.40832C23.9742 8.04855 24.6639 7.71886 25.4576 7.41916C26.2517 7.11962 26.859 7.03711 27.2787 7.17213C27.9528 8.86539 28.0128 10.3936 27.4582 11.757C28.6418 13.0307 29.2341 14.5742 29.2341 16.3872C29.2341 17.6608 29.0799 18.7881 28.7733 19.7697C28.4663 20.7514 28.0694 21.5376 27.5826 22.1297C27.0952 22.7218 26.4883 23.22 25.7617 23.6244C25.0349 24.029 24.3303 24.3211 23.6487 24.501C22.9668 24.681 22.199 24.8162 21.3451 24.9061C22.1239 25.5802 22.5135 26.6441 22.5135 28.0975V32.8396C22.5135 33.109 22.6071 33.3339 22.7947 33.5136C22.982 33.693 23.2777 33.7458 23.6824 33.6706C27.159 32.5171 29.9948 30.4381 32.1898 27.4337C34.3846 24.4295 35.4824 21.0472 35.4824 17.2858C35.4816 14.1549 34.7095 11.2671 33.1669 8.62237Z" fill="#CCCCCC"/>
</svg>
