<svg width="35" height="36" viewBox="0 0 35 36" fill="none" xmlns="http://www.w3.org/2000/svg">
<path d="M0.0478516 17.9285C0.0478516 27.4649 7.7745 35.1904 17.3098 35.1904C26.845 35.1904 34.5717 27.4638 34.5717 17.9285C34.5717 8.39216 26.845 0.666619 17.3098 0.666619C7.7745 0.666619 0.0478516 8.39327 0.0478516 17.9285ZM11.8739 9.45014L25.2246 12.2833C26.1712 12.4927 26.4007 13.0562 25.9552 13.8425L22.7745 18.1579L24.7792 20.2394C25.0086 20.4688 25.2035 20.6637 25.2035 21.1092L20.8111 20.8029L13.5856 12.8056C13.2794 12.4571 13.1056 12.8825 13.4119 13.3424L19.634 23.2263L18.3043 27.4861C18.0125 28.4115 17.3788 28.4327 16.9333 27.2912L10.5152 10.6485C10.2368 9.87557 10.7035 9.20068 11.8728 9.45126L11.8739 9.45014Z" fill="white"/>
</svg>
