<svg width="35" height="36" viewBox="0 0 35 36" fill="none" xmlns="http://www.w3.org/2000/svg">
<path d="M17.2619 0.602783C7.72554 0.602783 0 8.32943 0 17.8647C0 27.3999 7.72665 35.1266 17.2619 35.1266C26.7983 35.1266 34.5238 27.3999 34.5238 17.8647C34.5238 8.32943 26.7972 0.602783 17.2619 0.602783ZM25.7403 12.4289L22.9071 25.7796C22.6977 26.7262 22.1342 26.9556 21.348 26.5101L17.0325 23.3295L14.951 25.3341C14.7216 25.5635 14.5267 25.7584 14.0813 25.7584L14.3875 21.3661L22.3848 14.1406C22.7334 13.8343 22.3079 13.6606 21.848 13.9668L11.9642 20.1889L7.70438 18.8592C6.77892 18.5674 6.75776 17.9337 7.89927 17.4883L24.542 11.0702C25.3149 10.7918 25.9897 11.2584 25.7392 12.4277L25.7403 12.4289Z" fill="#CCCCCC"/>
</svg>
