<svg width="35" height="36" viewBox="0 0 35 36" fill="none" xmlns="http://www.w3.org/2000/svg">
<path d="M0.0478516 12.6291L0.0478516 23.2279C0.0478516 32.8946 2.34369 35.1904 12.0104 35.1904H22.6092C32.2758 35.1904 34.5717 32.8946 34.5717 23.2279V12.6291C34.5717 2.96245 32.2758 0.666618 22.6092 0.666618H12.0104C2.34369 0.666618 0.0478516 2.96245 0.0478516 12.6291ZM24.6806 7.31245V9.83269C24.6806 10.7821 23.9038 11.0755 22.1949 12.75C20.7621 14.269 20.555 14.925 20.555 15.2875C20.555 15.788 20.6931 15.9434 21.4181 15.9434H23.6794C24.2836 15.9434 24.6633 16.1333 24.6633 17.7386C24.6633 20.397 23.0407 23.3488 20.0544 25.4202C15.6699 28.5446 12.3556 29.3904 11.6996 29.3904C11.3371 29.3904 10.9919 29.2696 10.9919 28.5446V26.0071C10.9919 25.3684 11.2681 25.1267 11.9586 24.8851C15.5836 23.6422 18.6907 21.5708 18.6907 20.725C18.6907 20.397 18.5354 20.2589 17.7413 20.2589H14.03C12.3383 20.3452 12.183 21.2601 11.5788 21.2601C11.2681 21.2601 10.9919 21.0184 10.9919 20.6214V16.6684C10.9919 16.1333 11.2681 15.9434 11.924 15.9434H16.9127C17.4479 15.9434 17.6377 15.719 17.6377 15.5464C17.6377 15.2357 17.4479 14.9595 16.8609 14.3898C14.8413 12.5773 11.7169 11.2827 11.7169 11.2827C11.3544 11.1101 11.0092 10.8339 11.0092 10.1607V7.69221C11.0092 6.93269 11.4062 6.76007 11.9413 6.93269C13.4086 7.2434 17.7413 10.316 17.7413 10.2815C18.1729 10.5577 18.3627 10.6613 18.8633 10.2815C19.2258 10.0226 19.9854 9.14221 20.6586 8.55531C21.8842 7.48507 22.9026 6.6565 23.6104 6.4321C24.3181 6.24221 24.6806 6.58745 24.6806 7.31245Z" fill="white"/>
</svg>
