<svg width="35" height="36" viewBox="0 0 35 36" fill="none" xmlns="http://www.w3.org/2000/svg">
<path d="M22.5613 0.602783H11.9625C2.29583 0.602783 0 2.89862 0 12.5653L0 23.1641C0 32.8308 2.29583 35.1266 11.9625 35.1266H22.5613C32.228 35.1266 34.5238 32.8308 34.5238 23.1641V12.5653C34.5238 2.89862 32.228 0.602783 22.5613 0.602783ZM27.878 25.2355H25.3577C24.4083 25.2355 24.1149 24.4587 22.4405 22.7498C20.9214 21.3171 20.2655 21.1099 19.903 21.1099C19.4024 21.1099 19.247 21.248 19.247 21.973V24.2343C19.247 24.8385 19.0571 25.2183 17.4518 25.2183C14.7935 25.2183 11.8417 23.5956 9.77024 20.6093C6.64583 16.2248 5.8 12.9105 5.8 12.2546C5.8 11.8921 5.92083 11.5468 6.64583 11.5468H9.18333C9.82202 11.5468 10.0637 11.823 10.3054 12.5135C11.5482 16.1385 13.6196 19.2456 14.4655 19.2456C14.7935 19.2456 14.9315 19.0903 14.9315 18.2962V14.5849C14.8452 12.8933 13.9304 12.7379 13.9304 12.1337C13.9304 11.823 14.172 11.5468 14.569 11.5468H18.522C19.0571 11.5468 19.247 11.823 19.247 12.479V17.4677C19.247 18.0028 19.4714 18.1927 19.644 18.1927C19.9548 18.1927 20.231 18.0028 20.8006 17.4159C22.6131 15.3962 23.9077 12.2718 23.9077 12.2718C24.0804 11.9093 24.3565 11.5641 25.0298 11.5641H27.4982C28.2577 11.5641 28.4304 11.9611 28.2577 12.4962C27.947 13.9635 24.8744 18.2962 24.9089 18.2962C24.6327 18.7278 24.5292 18.9177 24.9089 19.4183C25.1679 19.7808 26.0482 20.5403 26.6351 21.2135C27.7054 22.4391 28.5339 23.4575 28.7583 24.1653C28.9482 24.873 28.603 25.2355 27.878 25.2355Z" fill="#CCCCCC"/>
</svg>
