<svg width="50" height="35" viewBox="0 0 50 35" fill="none" xmlns="http://www.w3.org/2000/svg">
<path d="M24.9553 34.8253C19.4351 34.6513 14.1855 34.516 8.936 34.3129C7.80488 34.2646 6.65442 34.0906 5.55231 33.8296C3.48342 33.3462 2.05261 32.099 1.31786 30.0592C0.728134 28.4157 0.515445 26.7238 0.360762 25.003C0.0223933 20.9619 0.0223932 16.9208 0.186744 12.8797C0.283421 10.5981 0.341427 8.2972 0.950491 6.0833C1.31786 4.75883 1.76258 3.46336 2.83569 2.50626C3.96681 1.49115 5.29128 0.88209 6.79944 0.814416C10.9372 0.611395 15.0653 0.360036 19.2031 0.321365C24.7717 0.263359 30.3499 0.3407 35.9185 0.447045C38.3257 0.495383 40.7523 0.621063 43.1403 0.930429C45.3252 1.22046 46.959 2.43859 47.8291 4.56548C48.4962 6.19932 48.7475 7.9105 48.8925 9.65068C49.2696 14.0108 49.2792 18.3709 49.0665 22.7311C48.9602 24.945 48.8539 27.1685 48.2255 29.3244C47.51 31.7993 45.9922 33.4332 43.4593 33.9939C42.4732 34.2066 41.4484 34.2839 40.443 34.3226C35.1838 34.5063 29.9342 34.6706 24.9553 34.8253ZM19.6091 23.8332C24.0176 21.5516 28.3777 19.2894 32.8248 16.9788C28.3874 14.6585 24.0272 12.3866 19.6091 10.0761C19.6091 14.6875 19.6091 19.2217 19.6091 23.8332Z" fill="#CCCCCC"/>
</svg>
