<svg width="35" height="50" viewBox="0 0 35 50" fill="none" xmlns="http://www.w3.org/2000/svg">
<path d="M34.9525 24.3146C34.7785 29.8348 34.6432 35.0844 34.4401 40.3339C34.3918 41.465 34.2178 42.6155 33.9568 43.7176C33.4734 45.7865 32.2262 47.2173 30.1864 47.952C28.5429 48.5418 26.851 48.7545 25.1302 48.9091C21.0891 49.2475 17.048 49.2475 13.0069 49.0832C10.7253 48.9865 8.4244 48.9285 6.2105 48.3194C4.88603 47.952 3.59056 47.5073 2.63346 46.4342C1.61835 45.3031 1.00929 43.9786 0.941614 42.4705C0.738592 38.3327 0.487233 34.2046 0.448562 30.0668C0.390556 24.4982 0.467898 18.92 0.574242 13.3514C0.622581 10.9441 0.748261 8.51756 1.05763 6.12964C1.34766 3.94475 2.56578 2.31091 4.69267 1.44082C6.32651 0.773747 8.03769 0.522387 9.77788 0.377372C14.138 0.000332439 18.4981 -0.00933406 22.8582 0.203355C25.0721 0.309699 27.2957 0.416042 29.4516 1.04444C31.9265 1.75985 33.5604 3.27768 34.1211 5.81061C34.3338 6.79671 34.4111 7.82149 34.4498 8.82693C34.6335 14.0861 34.7978 19.3357 34.9525 24.3146ZM23.9604 29.6608C21.6788 25.2523 19.4166 20.8922 17.106 16.4451C14.7857 20.8825 12.5138 25.2426 10.2033 29.6608C14.8147 29.6608 19.3489 29.6608 23.9604 29.6608Z" fill="white"/>
</svg>
